<svg xmlns="http://www.w3.org/2000/svg" width="280" height="41" fill="none" viewBox="0 0 280 41">
  <g clip-path="url(#clip0)">
    <path fill="#A5BBC9" d="M153.611 23.073c-1.528 1.668-4.167 1.807-5.972.278-1.667-1.529-1.806-4.309-.278-5.977 1.528-1.668 4.167-1.807 5.972-.278 1.667 1.53 1.806 4.17.278 5.977z"/>
    <path fill="#2E61A0" d="M151.528 5.699c.416.417.694.695.972 1.112 1.667 2.085 2.5 4.03 2.5 4.03 1.111.14 2.083.279 3.056.279h.277c2.084-.14 4.861-.973 7.223-3.475.138-.14.138-.14.277-.278-.416-.417-.833-.973-1.25-1.39-7.222-7.228-18.472-7.784-26.389-1.946 6.389-3.058 10.695-.973 13.334 1.668zM137.222 26.27c.139-.417.278-.973.417-1.39.972-2.502 2.222-4.17 2.222-4.17-.417-.973-.833-1.946-1.389-2.78 0 0 0-.139-.139-.139 0 0 0-.139-.139-.139-1.25-1.668-3.194-3.614-6.666-4.587-.139 0-.278 0-.417-.138-.139.556-.417 1.112-.555 1.668-2.639 9.868 2.5 19.876 11.527 23.768-5.416-3.753-5.833-8.48-4.861-12.093z"/>
    <path fill="#A5BBC9" d="M162.222 28.355c-.416.139-.972.278-1.389.278-2.639.417-4.722.139-4.722.139-.694.834-1.25 1.668-1.667 2.502 0 0 0 .139-.138.139v.139c-.834 1.946-1.528 4.726-.695 8.062 0 .139 0 .278.139.417.556-.14 1.111-.279 1.806-.417 9.861-2.641 15.972-12.093 14.861-21.962-.556 7.09-4.584 9.73-8.195 10.703z"/>
    <path fill="#2E61A0" d="M138.333 4.03s-4.444 2.78-6.666 8.201c.555.14 6.666 1.39 9.027 8.201.556-.417 2.223-1.668 3.473-5.42 1.389-4.448 4.027-7.784 7.5-9.313-.139 0-4.445-6.116-13.334-1.668z"/>
    <path fill="#A5BBC9" d="M152.222 36.417c0-2.224.695-5.282 3.195-8.201-.417-.417-1.806-1.529-5.556-.695-4.583 1.112-9.722.973-12.639-1.251 0 0-3.194 6.81 5.139 12.232 0 0 4.583 2.362 10.417 1.667 0-.277-.556-1.667-.556-3.752z"/>
    <path fill="#2E61A0" d="M166.528 7.923c-.695.834-3.75 4.03-8.889 4.03-.833 0-1.667-.138-2.639-.277-.139.694-.278 2.363 2.222 5.142 3.195 3.475 5.695 7.923 5.139 11.537 0 0 7.5-.695 8.056-10.564-.139 0-.278-5.143-3.889-9.868z"/>
    <path fill="#A5BBC9" d="M200.833 23.073c-1.527 1.668-4.166 1.807-5.972.278-1.667-1.529-1.805-4.309-.278-5.977 1.528-1.668 4.167-1.807 5.973-.278 1.666 1.53 1.805 4.17.277 5.977z"/>
    <path fill="#2E61A0" d="M198.75 5.699c.417.417.694.695.972 1.112 1.667 2.085 2.5 4.03 2.5 4.03 1.111.14 2.084.279 3.056.279h.278c2.083-.14 4.861-.973 7.222-3.475l.278-.278c-.417-.417-.834-.973-1.25-1.39-7.223-7.228-18.473-7.784-26.389-1.946 6.389-3.058 10.694-.973 13.333 1.668zM184.444 26.27c.139-.417.278-.973.417-1.39.972-2.502 2.222-4.17 2.222-4.17-.416-.973-.833-1.946-1.389-2.78 0 0 0-.139-.138-.139 0 0 0-.139-.139-.139-1.25-1.668-3.195-3.614-6.667-4.587-.139 0-.278 0-.417-.138-.139.556-.416 1.112-.555 1.668-2.639 9.868 2.5 19.876 11.528 23.768-5.417-3.753-5.834-8.48-4.862-12.093z"/>
    <path fill="#A5BBC9" d="M209.444 28.355c-.416.139-.972.278-1.388.278-2.639.417-4.723.139-4.723.139-.694.834-1.25 1.668-1.666 2.502 0 0 0 .139-.139.139v.139c-.834 1.946-1.528 4.726-.695 8.062 0 .139 0 .278.139.417.556-.14 1.111-.279 1.806-.417 9.861-2.641 15.972-12.093 14.861-21.962-.556 7.09-4.583 9.73-8.195 10.703z"/>
    <path fill="#2E61A0" d="M185.556 4.03s-4.445 2.78-6.667 8.201c.555.14 6.667 1.39 9.028 8.201.555-.417 2.222-1.668 3.472-5.42 1.389-4.448 4.028-7.784 7.5-9.313-.139 0-4.445-6.116-13.333-1.668z"/>
    <path fill="#A5BBC9" d="M199.444 36.417c0-2.224.695-5.282 3.195-8.201-.417-.417-1.806-1.529-5.556-.695-4.583 1.112-9.722.973-12.639-1.251 0 0-3.194 6.81 5.139 12.232 0 0 4.584 2.362 10.417 1.667 0-.277-.556-1.667-.556-3.752z"/>
    <path fill="#2E61A0" d="M213.75 7.923c-.695.834-3.75 4.03-8.889 4.03-.833 0-1.667-.138-2.639-.277-.139.694-.278 2.363 2.222 5.142 3.195 3.475 5.695 7.923 5.139 11.537 0 0 7.5-.695 8.056-10.564-.139 0-.278-5.143-3.889-9.868zM0 .695h19.583c4.306 0 7.5.973 9.584 3.058 2.083 2.085 3.194 4.865 3.194 8.617 0 3.892-1.111 6.811-3.472 9.035-2.361 2.224-5.833 3.197-10.556 3.197h-6.527V38.78H0V.695zm11.806 16.262h2.916c2.222 0 3.89-.417 4.722-1.25.834-.835 1.39-1.808 1.39-3.059 0-1.25-.417-2.223-1.25-3.057-.695-.834-2.223-1.251-4.445-1.251h-3.333v8.617zM37.917 11.12h9.86v4.586c.973-1.945 1.945-3.335 2.917-4.03.973-.695 2.223-1.112 3.75-1.112 1.528 0 3.334.417 5.14 1.39l-3.334 7.505c-1.25-.556-2.222-.834-2.917-.834-1.389 0-2.5.556-3.194 1.668-1.111 1.668-1.667 4.587-1.667 9.035v9.313H37.778V11.12h.139zM60.972 25.02c0-4.17 1.39-7.646 4.306-10.425 2.778-2.78 6.666-4.031 11.528-4.031 5.555 0 9.722 1.668 12.5 4.864 2.222 2.641 3.472 5.838 3.472 9.591 0 4.309-1.39 7.784-4.167 10.425-2.778 2.78-6.666 4.03-11.667 4.03-4.444 0-8.055-1.111-10.833-3.335-3.472-2.92-5.139-6.533-5.139-11.12zm10.695 0c0 2.501.555 4.308 1.527 5.42.973 1.112 2.223 1.807 3.75 1.807 1.528 0 2.778-.556 3.75-1.807.973-1.112 1.528-3.058 1.528-5.56 0-2.363-.555-4.17-1.528-5.282-.972-1.112-2.222-1.807-3.61-1.807-1.528 0-2.778.556-3.89 1.807-1.11 1.251-1.527 3.058-1.527 5.421zM120.833 0v38.78h-10.694V13.342a42.44 42.44 0 01-5 3.197c-1.667.834-3.611 1.53-6.111 2.363v-8.617c3.611-1.112 6.389-2.502 8.333-4.17 1.945-1.668 3.611-3.614 4.722-5.977h8.75V0zM223.889 28.216h11.25v10.563h-11.25V28.216zM242.5 38.78V.694h19.583c3.611 0 6.389.278 8.334.973 1.944.556 3.472 1.807 4.722 3.475 1.111 1.668 1.805 3.753 1.805 6.116 0 2.085-.416 3.891-1.388 5.42-.834 1.53-2.084 2.78-3.75 3.753-.973.556-2.362 1.112-4.167 1.53 1.389.416 2.361.972 3.055 1.39.417.277 1.112.972 1.945 1.945.833.973 1.389 1.807 1.667 2.363L280 38.78h-13.333l-6.25-11.676c-.834-1.529-1.528-2.502-2.084-2.919-.833-.556-1.805-.834-2.916-.834h-.973V38.78H242.5zm11.806-22.657h5c.555 0 1.527-.139 3.055-.556.833-.139 1.389-.556 1.945-1.25.555-.696.694-1.39.694-2.225 0-1.25-.417-2.223-1.111-2.78-.833-.694-2.222-.972-4.445-.972h-5.138v7.783z"/>
  </g>
  <defs>
    <clipPath id="clip0">
      <path fill="#fff" d="M0 0h280v40.309H0z"/>
    </clipPath>
  </defs>
</svg>
